<svg width="60" height="58" viewBox="0 0 60 58" fill="none" xmlns="http://www.w3.org/2000/svg">
<rect width="60" height="58" rx="5" fill="#EBC2FA"/>
<path d="M37.333 30.8337L46.9085 37.2173C47.0465 37.3092 47.2069 37.3619 47.3725 37.3698C47.5382 37.3777 47.7028 37.3406 47.849 37.2623C47.9952 37.1841 48.1174 37.0676 48.2026 36.9254C48.2879 36.7832 48.3329 36.6205 48.333 36.4547V21.4287C48.3331 21.2674 48.2905 21.1089 48.2098 20.9693C48.129 20.8297 48.0128 20.7139 47.873 20.6335C47.7331 20.5532 47.5745 20.5112 47.4132 20.5117C47.2519 20.5123 47.0936 20.5554 46.9543 20.6367L37.333 26.2503" stroke="#100617" stroke-width="2.29167" stroke-linecap="round" stroke-linejoin="round"/>
<path d="M33.667 18H15.3337C13.3086 18 11.667 19.6416 11.667 21.6667V36.3333C11.667 38.3584 13.3086 40 15.3337 40H33.667C35.692 40 37.3337 38.3584 37.3337 36.3333V21.6667C37.3337 19.6416 35.692 18 33.667 18Z" stroke="#100617" stroke-width="2.29167" stroke-linecap="round" stroke-linejoin="round"/>
</svg>
