<svg width="60" height="58" viewBox="0 0 60 58" fill="none" xmlns="http://www.w3.org/2000/svg">
<rect width="60" height="58" rx="5" fill="#EBC2FA"/>
<path d="M25.0996 28.8334L38.5496 15.4001C38.988 14.9475 39.5121 14.5867 40.0914 14.3386C40.6706 14.0906 41.2935 13.9602 41.9236 13.9552C42.5537 13.9502 43.1785 14.0706 43.7616 14.3095C44.3447 14.5483 44.8745 14.9008 45.3201 15.3463C45.7656 15.7919 46.1181 16.3217 46.3569 16.9048C46.5957 17.4879 46.7162 18.1127 46.7112 18.7428C46.7061 19.3729 46.5758 19.9957 46.3278 20.575C46.0797 21.1542 45.7189 21.6783 45.2663 22.1168L31.8329 35.5834" stroke="#100617" stroke-width="2.08333" stroke-linecap="round" stroke-linejoin="round"/>
<path d="M21.7834 33.9004C19.0167 33.9004 16.7834 36.1504 16.7834 38.9337C16.7834 41.1504 12.6167 41.4671 13.45 42.3004C15.25 44.1337 17.6 45.6671 20.1167 45.6671C23.7834 45.6671 26.7834 42.6671 26.7834 38.9337C26.7856 38.2749 26.658 37.6221 26.4079 37.0127C26.1578 36.4032 25.7901 35.8489 25.3258 35.3815C24.8615 34.9141 24.3097 34.5428 23.7019 34.2886C23.0941 34.0345 22.4422 33.9026 21.7834 33.9004Z" stroke="#100617" stroke-width="2.08333" stroke-linecap="round" stroke-linejoin="round"/>
</svg>
